<svg width="131" height="131" viewBox="0 0 131 131" fill="none" xmlns="http://www.w3.org/2000/svg">
<rect y="0.949219" width="131" height="130" rx="65" fill="#FFD323" fill-opacity="0.2"/>
<path d="M94.2143 70.7143H70.2857V94.2857C70.2857 95.536 69.7815 96.7351 68.884 97.6192C67.9865 98.5033 66.7692 99 65.5 99C64.2307 99 63.0135 98.5033 62.116 97.6192C61.2185 96.7351 60.7143 95.536 60.7143 94.2857V70.7143H36.7857C35.5165 70.7143 34.2992 70.2176 33.4017 69.3335C32.5042 68.4494 32 67.2503 32 66C32 64.7497 32.5042 63.5506 33.4017 62.6665C34.2992 61.7824 35.5165 61.2857 36.7857 61.2857H60.7143V37.7143C60.7143 36.464 61.2185 35.2649 62.116 34.3808C63.0135 33.4967 64.2307 33 65.5 33C66.7692 33 67.9865 33.4967 68.884 34.3808C69.7815 35.2649 70.2857 36.464 70.2857 37.7143V61.2857H94.2143C95.4835 61.2857 96.7008 61.7824 97.5983 62.6665C98.4958 63.5506 99 64.7497 99 66C99 67.2503 98.4958 68.4494 97.5983 69.3335C96.7008 70.2176 95.4835 70.7143 94.2143 70.7143Z" fill="#FFD323"/>
</svg>
